<?xml version="1.0" encoding="utf-8"?>
<!-- Generator: Adobe Illustrator 16.0.4, SVG Export Plug-In . SVG Version: 6.00 Build 0)  -->
<!DOCTYPE svg PUBLIC "-//W3C//DTD SVG 1.1//EN" "http://www.w3.org/Graphics/SVG/1.1/DTD/svg11.dtd">
<svg version="1.1" id="Layer_1" xmlns="http://www.w3.org/2000/svg" xmlns:xlink="http://www.w3.org/1999/xlink" x="0px" y="0px"
	 width="356.234px" height="142.493px" viewBox="0 0 356.234 142.493" enable-background="new 0 0 356.234 142.493"
	 xml:space="preserve">
<g id="full_name">
	<text id="a_cappella" transform="matrix(1 0 0 1 230.6108 106.3071)" fill="#FFFF00" font-family="'Georgia'" font-size="14">a cappella</text>
	<g id="name_2_">
		<g>
			<g>
				<path fill="#FFFF00" d="M193.912,68.88c-1.123-3.701-5.882-2.672-8.617-1.397c-4.726,2.201-7.299,6.354-7.397,11.53
					c-0.103,5.411,3.94,9.946,8.513,12.2c5.44,2.683,11.314-0.371,14.911-4.532c6.548-7.578,5.976-22.634-7.09-20.455
					c-11.13,1.855-10.362,18.36-6.448,25.7c1.131,2.125,4.748,0.654,3.92-1.651c-1.729-4.804-2.894-9.596-1.496-14.659
					c0.948-3.435,4.297-5.734,7.857-5.163c4.486,0.72,3.298,6.321,2.342,9.141c-2.607,7.689-11.292,11.06-16.669,3.955
					c-2.388-3.155-2.114-7.568,0.272-10.602c1.197-1.521,6.334-5.047,8.316-3.145C192.994,70.444,194.194,69.813,193.912,68.88
					L193.912,68.88z"/>
			</g>
		</g>
		<g>
			<g>
				<path fill="#FFFF00" d="M227.126,64.889c-3.717-3.76-9.976-2.37-13.801,0.56c-4.152,3.177-5.341,9.274-4.379,14.178
					c1.121,5.723,4.271,10.728,10.133,12.309c4.815,1.299,11.928-1.98,13.699-6.691c0.913-2.428-2.881-3.908-4.111-1.732
					c-1.418,2.503-5.084,3.908-7.771,3.943c-4.194,0.051-6.422-4.514-7.384-7.879c-0.795-2.783-0.512-5.906,0.677-8.525
					c1.327-2.922,7.577-6.856,10.729-3.956C226.396,68.449,228.544,66.325,227.126,64.889L227.126,64.889z"/>
			</g>
		</g>
		<g>
			<g>
				<path fill="#FFFF00" d="M253.932,69.132c-0.515-4.695-5.021-6.035-9.21-5.366c-6.075,0.97-9.562,8.379-10.469,13.671
					c-0.883,5.164,0.358,11.507,5.629,13.66c5.244,2.142,10.613-3.861,12.662-7.847c1.955-3.801,5.07-11.661,1.352-15.381
					c-3.639-3.637-5.664,7.043-5.73,8.674c-0.189,4.678,1.666,10.549,4.941,13.929c3.857,3.981,7.292-1.79,6.489-5.457
					c-0.431-1.966-3.106-1.315-3.278,0.442c-0.453,4.66-3.027-1.584-3.533-2.942c-1.051-2.829-1.272-5.737-0.803-8.737
					c0.104-0.665,0.566-1.392,0.848-1.996c0.787-1.004,0.408-1.2-1.134-0.588c0.187,0.85,0.229,1.703,0.134,2.562
					c-0.127,2.89-1.522,5.943-2.828,8.461c-1.353,2.605-3.935,5.201-6.973,5.561c-4.191,0.495-4.628-5.9-4.562-8.678
					c0.084-3.641,1.718-7.18,4.099-9.864c1.388-1.563,9.826-5.807,9.763-0.104C251.307,70.843,254.112,70.773,253.932,69.132
					L253.932,69.132z"/>
			</g>
		</g>
		<g>
			<g>
				<path fill="#FFFF00" d="M265.339,46.652c0.554,1.611,0.002,4.44-0.071,6.13c-0.149,3.47-0.304,6.938-0.509,10.404
					c-0.516,8.753-1.447,17.525-1.494,26.293c1.371-0.371,2.742-0.743,4.113-1.113c-0.189-0.398-0.379-0.797-0.569-1.193
					c-0.483-1.012-2.188-1.012-2.672,0c-0.19,0.396-0.38,0.795-0.57,1.193c-1.623,3.393,4.077,4.616,4.114,1.113
					c0.104-9.789,0.673-19.567,0.869-29.356c0.041-2.099,1.52-14.32-1.869-14.812C265.932,45.203,265.041,45.779,265.339,46.652
					L265.339,46.652z"/>
			</g>
		</g>
		<g>
			<g>
				<path fill="#FFFF00" d="M273.73,60.911c-5.574,0.671-11.518-0.104-17.127-0.195c0,1.031,0,2.062,0,3.094
					c3.846,0.054,7.686,0.143,11.531,0.062c1.152-0.024,8.016,0.369,6.873-2.51c-0.389-0.975-0.865-1.111-1.713-1.089
					c-1.707,0.044-3.438,0.342-5.16,0.388c-3.842,0.103-7.688,0.026-11.531,0.055c-1.994,0.015-1.996,3.101,0,3.094
					c6.047-0.02,11.717,0.448,17.346-2.091C274.333,61.546,274.153,60.86,273.73,60.911L273.73,60.911z"/>
			</g>
		</g>
		<g>
			<g>
				<path fill="#FFFF00" d="M290.126,70.131c2.453-6.873-14.287-9.094-14.855-1.061c-0.305,4.281,4.175,7.07,7.365,9.013
					c2.449,1.49,5.126,4.058,4.583,7.254c-0.368,2.162-3.202,2.271-4.849,2.23c-0.256-0.006-5.002-1.367-4.373-1.854
					c1.314-1.016,0.072-2.805-1.211-2.92c-6.223-0.564-2.916,6.047,0.107,7.965c3.803,2.414,11.425,2.307,13.887-2.078
					c2.508-4.469,0.279-9.372-3.203-12.604c-2.115-1.963-4.996-2.884-7.187-4.798c-4.099-3.581,7.565-5.621,7.479-1.455
					C287.843,71.183,289.707,71.306,290.126,70.131L290.126,70.131z"/>
			</g>
		</g>
		<g>
			<g>
				<path fill="#FFFF00" d="M178.994,60.488c-2.083-0.412-4.278-0.169-6.392-0.177c-2.346-0.009-5.146-0.55-7.437-0.14
					c-1.684,0.302-1.73,2.649-0.449,3.437c1.829,1.122,5.293,0.523,7.312,0.389c2.292-0.153,5.209-0.023,7.269-1.182
					C180.214,62.3,180.093,60.706,178.994,60.488L178.994,60.488z"/>
			</g>
		</g>
		<g>
			<g>
				<path fill="#FFFF00" d="M170.522,44.979c-0.892,3.268-0.636,6.605-0.746,9.965c-0.139,4.24-0.34,8.461-0.232,12.705
					c0.2,7.928-1.814,17.262,0.244,24.928c0.407,1.516,2.606,1.484,3.029,0c1.993-7.011,1.407-15.793,1.251-23.051
					c-0.172-8.043,0.07-16.126-0.6-24.148C173.332,43.747,170.989,43.268,170.522,44.979L170.522,44.979z"/>
			</g>
		</g>
		<g>
			<g>
				<path fill="#FFFF00" d="M79.992,91.243c0.422-9.201,0.831-17.648,3.377-26.597c1.053-3.697,2.11-7.401,3.259-11.07
					c0.829-2.649,1.931-5.151,3.671-7.331c1.703-2.135,3.031,3.751,3.352,4.7c2.863,8.478,3.605,17.634,5.234,26.394
					c1.932,10.391,3.91,20.68,4.154,31.277c1.482-0.199,2.965-0.4,4.447-0.602c-1.674-9.201-3.709-17.053-9.092-24.829
					c-3.331-4.812-7.258-8.802-11.833-12.4c-5.457-4.293-19.322-13.343-21.932-1.4c-0.564,2.585,3.298,3.681,3.979,1.096
					c2.081-7.903,15.416,3.624,18.414,6.207c9.734,8.385,14.391,19.428,16.017,31.93c0.364,2.801,4.533,3.008,4.527,0
					c-0.023-12.209-2.844-24.197-5.051-36.143c-1.08-5.846-1.854-11.729-3.188-17.528c-0.744-3.229-2.147-11.118-5.701-12.787
					c-7.687-3.611-10.807,11.54-12.147,16.247c-3.058,10.724-6.05,21.947-3.973,33.173C77.777,93.043,79.93,92.607,79.992,91.243
					L79.992,91.243z"/>
			</g>
		</g>
		<g>
			<g>
				<path fill="#FFFF00" d="M163.916,67.743c-0.851-8.123-12.618-5.086-14.88,0.675c-1.806,4.6,4.076,7.954,7.169,9.715
					c3.521,2.008,7.786,7.826,1.76,9.712c-3.191,0.999-11.777-0.818-5.931-4.813c1.327-0.906,1.012-3.492-0.899-3.318
					c-6.837,0.623-7.641,8.127-2.47,11.715c4.705,3.265,12.508,1.716,15.834-2.635c4.57-5.979-2.31-12.478-7.03-15.068
					c-2.756-1.512-6.415-3.748-2.523-6.241c2.097-1.343,5.654-1.712,7.049,0.781C162.469,69.112,164.025,68.792,163.916,67.743
					L163.916,67.743z"/>
			</g>
		</g>
		<g>
			<g>
				<path fill="#FFFF00" d="M137.234,65.271c-3.882,6.06-8.091,15.396-6.821,22.704c1.445,8.318,14.214,2.234,12.638-4.085
					c-0.234-0.94-1.563-1.623-2.41-0.979c-1.639,1.244-2.489,3.082-4.258,4.26c-2.77,1.843-1.395-6.127-1.271-6.715
					c1.028-4.899,3.297-9.333,4.736-14.083C140.332,64.773,138.088,63.938,137.234,65.271L137.234,65.271z"/>
			</g>
		</g>
		<g>
			<g>
				<path fill="#FFFF00" d="M142.795,42.478c-3.733-0.883-8.023-0.765-10.912,2.053c-2.716,2.649-1.445,7.671,1.244,9.786
					c5.743,4.519,17.224-0.127,20-6.273c4.137-9.156-9.32-11.587-12.501-3.817c-1.704,4.164-2.143,19.457,6.281,14.756
					c1.307-0.729,0.759-2.92-0.772-2.854c-2.366,0.103-2.928-0.789-3.204-3.135c-0.228-1.927-0.001-3.927,0.393-5.813
					c0.45-2.157,1.655-3.527,3.8-4.221c3.651-1.179,3.763,2.858,2.033,4.973c-2.62,3.204-8.058,5.154-12.106,4.462
					c-2.394-0.408-4.145-2.994-3.121-5.392c1.113-2.606,5.97-2.584,8.214-2.161C143.677,45.129,144.347,42.845,142.795,42.478
					L142.795,42.478z"/>
			</g>
		</g>
		<g>
			<g>
				<path fill="#FFFF00" d="M111.951,64.993c-0.525,8.707-0.269,17.61-0.167,26.333c1.346,0,2.691,0,4.037,0
					c-0.235-5.594-0.7-11.244,0.714-16.724c0.63-2.438,8.12-11.093,9.069-5.097c0.389,2.458,4.115,1.411,3.729-1.027
					c-1.121-7.082-7.56-5.25-11.79-1.976c-7.437,5.755-5.584,16.628-5.759,24.824c-0.056,2.604,4.008,2.603,4.037,0
					c0.1-8.779,0.235-18.021-1.545-26.649C113.993,63.308,112.028,63.721,111.951,64.993L111.951,64.993z"/>
			</g>
		</g>
	</g>
	<text transform="matrix(1 0 0 1 32.9541 55.792)" fill="#FFFF00" font-family="'Georgia'" font-size="25">the</text>
</g>
</svg>
