<?xml version="1.0" encoding="utf-8"?>
<!-- Generator: Adobe Illustrator 16.0.4, SVG Export Plug-In . SVG Version: 6.00 Build 0)  -->
<!DOCTYPE svg PUBLIC "-//W3C//DTD SVG 1.1//EN" "http://www.w3.org/Graphics/SVG/1.1/DTD/svg11.dtd">
<svg version="1.1" id="Layer_1" xmlns="http://www.w3.org/2000/svg" xmlns:xlink="http://www.w3.org/1999/xlink" x="0px" y="0px"
	 width="1000px" height="998.61px" viewBox="0 0 1000 998.61" enable-background="new 0 0 1000 998.61" xml:space="preserve">
<g>
	<path fill="#2F2F2F" d="M464.58-1.39h22.87C478.52-1.11,469.62-0.27,460.7,0C461.67-0.34,463.61-1.04,464.58-1.39L464.58-1.39z"/>
	<path fill="#FFFFFF" d="M487.45-1.39h25.16c86.06,2.09,171.5,26.75,245.18,71.34c64.979,39.11,120.86,93.19,162.1,156.83
		c32.79,50.49,56.33,106.97,68.99,165.82c6.5,30.11,10.15,60.81,11.12,91.59v28.93c-1.55,50.641-10.58,101.09-27.17,148.98
		C947.38,735.9,904.24,803.5,848.1,857.72c-57.22,55.71-128.04,97.34-204.58,120.149c-34.869,10.4-70.899,17.05-107.21,19.54
		c-7.279,0.25-14.54,0.94-21.819,1.2h-29.03c-56.91-1.72-113.58-12.99-166.65-33.68c-72.83-28.25-138.74-73.971-190.88-132.11
		C74.01,772.97,34.82,699.89,15.18,621.75C5.98,585.59,1.01,548.39,0,511.11v-25.04c0.27-8.94,1.14-17.86,1.39-26.81
		c6.17-79.52,31.71-157.45,74.05-225.07c41.14-66.01,97.88-122.21,164.29-162.7C306.38,30.66,382.78,6.04,460.7,0
		C469.62-0.27,478.52-1.11,487.45-1.39L487.45-1.39z"/>
	<path d="M387.58,92.94c39.2-10.11,79.87-15.19,120.35-13.27c33.551,1,66.83,6.92,99.07,16.13c-5.7,0.85-11.43,1.48-17.19,1.63
		l-0.6,0.38c-8.4,0.38-16.75,1.3-25.12,1.93c-36.979,2.33-74.11,2.34-111.09,0.07C431.16,97.95,409.29,96.02,387.58,92.94
		L387.58,92.94z"/>
	<path d="M350.49,107.66c23.03,3.48,45.979,7.57,69.08,10.52c18.04,2.44,36.17,4.64,54.39,4.83c13.35,0.59,26.72,0.5,40.08,0.25
		c22.41,0.32,44.71-2.39,66.89-5.32c16.88-2.37,33.721-5.01,50.5-8.01c-1.359,22.19-0.97,44.44-0.63,66.65
		c1.4,37.66,0.61,75.35,0.97,113.03c0.131,5.31-0.329,10.65,0.32,15.93c-0.01,14.69,0.38,29.38,1.1,44.05
		c-0.439,13.52-0.739,28.04-8.279,39.81c-9.21,12.91-22.4,22.44-36.351,29.69c-15.489,7.89-31.399,14.9-47.329,21.83
		c-13.641,5.83-27.33,11.6-41.311,16.58c-3.93,1.27-7.82,2.85-11.93,3.38c-4.85-0.68-9.4-2.7-14.01-4.31
		c-22.11-8.59-43.68-18.52-65.11-28.68c-15.55-7.57-31.54-15.03-44.39-26.86c-5.15-4.92-10.25-10.08-13.72-16.36
		c-4.57-8.61-5.52-18.52-6.09-28.09c-0.52-15.36,1.61-30.66,1.66-46.01c0.54-25.33,1.44-50.65,1.48-76
		c0.79-13.32,0.33-26.69,1.35-40C350.22,165.61,351.55,136.63,350.49,107.66L350.49,107.66z"/>
	<path d="M149.23,273.06c42.18-70.12,106.32-126.82,181.27-159.72c0.24,39.08-2.82,78.07-3.29,117.14c-0.13,2.71-0.41,5.41-0.4,8.13
		c-0.08,29.34-1.15,58.65-1.57,87.98c-0.71,11.01-0.37,22.08-1.49,33.07c-0.31,11.33-1.64,22.66-0.55,33.99
		c0.55,12.15,2.61,24.85,9.53,35.14c10.48,14.55,24.9,25.86,40.46,34.57c12.35,6.75,24.97,13.01,37.83,18.75
		c-50.35,0.43-100.71,0.06-151.06,0.18c-56.03-0.03-112.07,0.07-168.1-0.05c-0.12-10.64,0.72-21.25,0.93-31.88l0.39-0.6
		C97.31,387.52,117.03,326.44,149.23,273.06L149.23,273.06z"/>
	<path d="M672.55,121.94c65.86,33.4,122.3,85.13,160.92,148.09c32.08,52.15,52.21,111.8,57.33,172.84l0.38,0.61
		c0.74,12.93,1.721,25.85,1.44,38.81c-52.53,0-105.05,0-157.58,0c-48.7-0.11-97.41,0.23-146.101-0.17
		c25.761-11.39,52.791-23.13,71.561-44.99c9.12-9.48,12.86-22.66,14.1-35.45c2.42-21.32-0.609-42.71-0.22-64.07
		c-0.16-9.66-0.12-19.31-0.14-28.97c-0.78-12.99-0.221-26.021-0.4-39.021c0.01-11.34,0.01-22.68,0-34.01
		C674.13,197.71,671.83,159.84,672.55,121.94L672.55,121.94z"/>
	<path fill="#FFFFFF" d="M385.74,187.51c8.79-7.66,20.64-11.49,32.26-10.63c8.4-0.21,15.9,4.09,23.82,6
		c5.42-2.39,11.38-2.31,17.18-1.77c2.04,0.24,2.5,2.78,2.43,4.47c0.04,13.7-0.02,27.4,0.03,41.11c0.09,1.89-0.35,3.74-0.99,5.52
		c-4.59,0.16-9.24,0.49-13.8-0.11c-1.97-2.36-2.43-5.521-3.33-8.37c-2.5-9.26-5.57-18.95-12.56-25.87
		c-4.8-4.8-12.15-6.73-18.69-4.93c-6.9,1.43-12.19,7.229-14.44,13.72c-2.17,6.75-0.87,14.17,2.05,20.5
		c3.5,7.9,9.48,14.33,15.53,20.36c15.24,14.32,32.56,26.61,45.28,43.43c9.95,12.56,15.53,28.57,14.88,44.63
		c-0.07,15.64-6.49,31.42-18.52,41.64c-9.97,9.06-23.38,14.33-36.88,14.04c-10.36,0.32-20.24-3.22-30.06-6.02
		c-2.3,0.76-4.55,1.66-6.79,2.59c-3.43-0.01-6.86-0.01-10.29,0c-0.59-0.25-1.77-0.74-2.36-0.99c-0.33-1.74-0.67-3.49-0.67-5.26
		c0.01-15.32,0.03-30.63,0-45.94c-0.04-2.06,0.34-4.09,0.73-6.09c0.54-0.35,1.63-1.04,2.17-1.39c4.2,0.28,8.69-0.84,12.65,0.97
		c2.18,7.13,2.79,14.64,5.21,21.7c2.7,8.62,7.46,17.25,15.56,21.83c9.53,5.02,22.41,4.03,30.34-3.55c6.14-6.13,9.38-14.91,9.2-23.54
		c0.27-10.09-3.77-19.94-10.08-27.7c-14.19-17.45-32.83-30.4-48.61-46.26c-11.49-11.53-19.63-27.37-18.78-43.96
		C367.57,212.52,374,197.17,385.74,187.51L385.74,187.51z"/>
	<path fill="#FFFFFF" d="M486.6,181.49c-0.31-1.87,1.62-3.34,3.35-3.18c18.08-0.09,36.18,0.01,54.27-0.05
		c0.511,0.32,1.53,0.96,2.05,1.28c0.011,3.04,0.2,6.1-0.08,9.14c-1.069,2.91-4.239,3.97-6.409,5.87c-3.07,2.32-4.34,6.31-4.12,10.04
		c0.12,47.74-0.141,95.47,0.14,143.2c0.851,6.39,2.29,13.27,7.19,17.87c5.8,5.47,14.56,6.23,22.04,4.7
		c6.489-1.27,12.13-5.84,14.75-11.91c3.43-7.44,3.77-15.8,3.609-23.86c0-43.66-0.01-87.33,0.011-130.99
		c0.239-3.79-1.561-7.67-4.82-9.68c-2.6-1.74-6.11-3.56-5.84-7.24c0.18-2.72-1.04-6.96,2.21-8.24c10.989-0.39,22.02-0.04,33.03-0.17
		c3.21,0.08,6.579-0.43,9.63,0.89c-0.03,3.47,0.529,7.06-0.33,10.46c-2.271,3.21-6.681,4.18-8.54,7.76
		c-1.181,1.85-1.5,4.06-1.46,6.22c0.01,41.35,0,82.71,0.01,124.06c-0.08,8.48,0.53,17.08-1.48,25.4
		c-2.17,10.28-7.989,19.78-16.39,26.13c-7.28,5.79-16.25,9.03-25.34,10.57c-16.25,1.86-33.88,0.2-47.46-9.7
		c-11.94-8.03-19.45-22.07-19.36-36.47c-0.01-47.39-0.07-94.78,0.03-142.16c-0.89-4.29-4.08-7.36-7.75-9.43
		C485.65,189.93,486.59,185.13,486.6,181.49L486.6,181.49z"/>
	<path d="M44.1,348.45c2.52-6.34,4.41-12.99,7.39-19.11c0.12,1.92,0.08,3.84,0.04,5.76c3.86,4.35,9.87,5.71,15.3,6.95
		c8.55-0.89,17-2.98,25.2-5.57c3-0.77,4.77-3.46,6.99-5.38c-1.89,6.84-4.16,13.74-7.49,20.02c-0.11-2.3-0.06-4.59-0.17-6.87
		c-6.71-0.4-12.97,2.6-19.4,4.06c-2.78-0.06-1.07,2.28-0.36,3.42c3.17,4.49,5.85,9.46,9.8,13.32c3.1,1.62,4.63-2.47,6.6-4.05
		c-0.52,3.36-1.91,6.47-3.03,9.66c-0.98,2.62-1.75,5.42-3.58,7.62c0.01-3.1,0.82-6.45-0.96-9.26c-3.14-5.68-6.96-10.98-10.56-16.38
		c-1.73-2.83-5.1-3.71-7.98-4.89c-3.56-1.27-7.09-2.74-10.81-3.52c-3.35-1.15-4.49,2.93-6.06,4.98
		C44.79,349.02,44.33,348.64,44.1,348.45L44.1,348.45z"/>
	<path d="M48.7,373.46c5.03-0.85,10.45-0.86,15.22,1.16c7.01,3.1,12.76,9.3,14.62,16.82c2.41,9.2-1.5,20.03-9.97,24.75
		c-5.2,3.34-11.68,3.94-17.66,2.83c-9.59-2.28-17.23-10.86-18.89-20.5C30.23,387.52,37.68,375.84,48.7,373.46L48.7,373.46z"/>
	<path fill="#FFFFFF" d="M45.47,381.3c6.85-0.8,14.15-0.75,20.44,2.41c5.01,2.33,9.81,6.3,11.18,11.87
		c0.98,4.79-1.2,10.16-5.36,12.79c-6.08,3.87-13.83,4.44-20.67,2.46c-6.54-1.8-13.21-5.51-16.28-11.83
		C31.33,391.42,37.57,382.35,45.47,381.3L45.47,381.3z"/>
	<path d="M67.18,432.75c3.35-0.37,3.75-4.09,5.23-6.43c0.5,6.96-1.24,13.83-1.33,20.79c-0.34,0.11-1.01,0.35-1.35,0.46
		c-0.4-1.7-0.27-3.7-1.52-5.06c-2.17-2.18-5.41-2.38-8.26-2.94c-7.59-0.98-15.23-1.81-22.9-1.61c-4.53-0.11-8.34,3.53-9.66,7.65
		c-1.23,3.83-1.47,8.06-0.49,11.97c1,3.67,4.22,6.24,7.81,7.17c7.64,1.86,15.52,2.35,23.33,3.12c2.79,0.05,6.11,0.1,8.22-2.04
		c1.27-1.22,1.38-3.09,1.88-4.67l1.37,0.05c-1.01,5.75-0.19,11.94-2.4,17.41c-0.62-2.06-1.21-4.11-1.91-6.13
		c-10.97-4.32-23.43-2.09-34.32-6.77c-4.85-2.36-6.97-8-7.27-13.08c-0.31-6.66,0.84-14.07,5.67-19.03
		c3.12-2.98,7.72-2.91,11.73-2.66C49.71,431.73,58.42,433.31,67.18,432.75L67.18,432.75z"/>
	<path fill="#2F2F2F" d="M0,462.32c0.47-1.02,0.93-2.04,1.39-3.06c-0.25,8.95-1.12,17.87-1.39,26.81V462.32L0,462.32z"/>
	<path d="M21.64,481.03c0.36-0.05,1.09-0.16,1.46-0.21c0.18,1.63,0.39,3.26,0.63,4.9c1.67,0.74,3.34,1.7,5.24,1.64
		c7,0.2,14.01-0.14,21.02-0.06c5.17-0.08,10.49,0.42,15.46-1.29c0.58-1.68,1.08-3.38,1.51-5.09c0.32-0.02,0.96-0.06,1.28-0.08
		c0.12,7.95,0.43,15.9,0.46,23.85c0.05,4.55-1.09,9.59-4.89,12.49c-4.4,3.8-11.93,2.66-15.17-2.12c-1.37-2.24-2.14-4.76-2.9-7.25
		c-1.33,2.14-2.43,4.5-4.3,6.25c-4.51,3.7-11.22,2.46-15.64,6.34c-2.13,1.74-2.12,4.74-2.9,7.17c-1.4-2.45-1-5.31-0.76-7.979
		c0.3-2.41-0.76-5.711,1.58-7.28c5.73-3.01,13.08-1.49,18.31-5.62c3.75-3.1,2.79-8.48,2.6-12.75c-5.93,0.08-11.92-0.38-17.8,0.48
		c-3.06,0.66-3.53,3.93-3.78,6.54c-0.29-0.27-0.88-0.8-1.17-1.069C21.48,493.61,21.93,487.31,21.64,481.03L21.64,481.03z"/>
	<path fill="#FFFFFF" d="M46.41,493.94c6.66-0.21,13.33-0.07,19.99,0.01c0.98,4.8,1.98,10.51-1.33,14.66
		c-3.51,4.34-10.7,4.59-14.55,0.55C46.41,505.27,46.9,499.1,46.41,493.94L46.41,493.94z"/>
	<path d="M487.16,523.56c1.51-0.521,3.01-1.29,4.66-1.29c7.53-0.19,15.07-0.22,22.6-0.42c0.48,39.93,0.13,79.89-0.729,119.8
		c-0.19,4.85,1.819,10.55,6.909,12.07c2.221,1.17,6.761,0.529,5.94,4.26c-8.87,0.91-17.86,0.29-26.77,0.29
		c-0.26-5.9-0.2-11.8-0.1-17.7c-4.61,8.56-11.8,16.79-21.76,18.76c-9.56,2.25-19.28-2.069-26.55-8.09
		c-6.57-4.97-11.53-12.11-13.55-20.12c-4.19-16.25,0.02-34.71,11.92-46.76c7.59-8.3,19.21-12.49,30.36-11.02
		c8.27,0.84,15.95,5.979,19.57,13.52c1.31-10.01,0.74-20.14,0.88-30.2c-0.12-8.62,0.06-17.319-1.41-25.84
		C497.53,525.11,489.84,527.86,487.16,523.56L487.16,523.56z"/>
	<path d="M289.39,547.74c-0.12-1.96,1.33-3.08,2.78-4.08c0.63,1.21,1.59,2.46,1.35,3.95c-0.41,8.58-0.16,17.17-0.22,25.76
		c9.11,0.141,18.25-0.7,27.34,0.13c0.1,2.271-0.16,4.53-0.89,6.69c-8.79,0.67-17.62,0.81-26.39,1.75
		c-0.84,9.22-0.94,18.479-1.18,27.74c-0.54,9.26-0.59,18.58,0.53,27.81c0.68,4.23,2.12,8.95,6.03,11.3
		c5.1,3.32,11.86,2.63,17.03-0.18c2.25-0.98,4.26-2.93,6.87-2.71c0.8,3.18-2.25,5.21-4.3,7.01c-7.45,6.5-18.38,8.931-27.81,5.9
		c-6.88-2.32-10.61-9.4-11.82-16.141c-1.94-11.59-0.36-23.329-0.27-34.979c0.07-8.58,1-17.12,1.11-25.7
		c-5.25-1.22-10.7-0.54-15.99-1.35c-1.55,0.09-2.08-2.44-0.56-2.91c6.14-2.89,11.83-6.68,17.02-11.05
		C285.54,561.919,288.53,554.86,289.39,547.74L289.39,547.74z"/>
	<path d="M762.16,546.98c-0.13-1.93,1.7-2.53,3.17-3.15c0.49,1.91,1.11,3.851,0.8,5.87c-0.79,7.84-0.13,15.73-0.32,23.601
		c7.381,0.1,14.761-0.131,22.15-0.2c1.89-0.05,3.75,0.38,5.57,0.92c-0.3,2.05-0.69,4.1-1.12,6.14
		c-8.86,0.75-17.78,0.76-26.601,1.851c-0.739,16.83-1.88,33.68-1.119,50.529c0.699,5.23,0.97,11.38,5.25,15.12
		c4.51,4.12,11.55,4.16,16.88,1.67c2.979-1.109,5.479-3.71,8.88-3.39c-0.44,3.99-4.05,6.29-6.891,8.6
		c-7.659,5.62-18.47,7.33-27.3,3.601c-7.29-3.55-10.04-12.011-10.83-19.53c-0.72-8.97-0.029-17.98,0.101-26.96
		c0.77-9.83,0.68-19.72,1.529-29.54c-5.779-1.52-11.87-0.45-17.67-1.91c-0.01-0.479-0.05-1.439-0.06-1.92
		c6.62-3.05,12.729-7.14,18.31-11.82C758.49,561.54,761.25,554.23,762.16,546.98L762.16,546.98z"/>
	<path d="M55.53,548.11c5.36-3.11,11.86,0.3,14.83,5.1c3.42,5.15,2.76,11.811,0.99,17.431c1.21,0.64,2.42,1.29,3.61,1.97
		c-4.53,1.44-9.1,2.9-13.83,3.56c2.07-2.71,5.28-4.25,7.23-7.06c2.67-3.5,3.81-8.43,1.76-12.5c-2.22-4.95-10.31-6.06-13.11-1.06
		c-3.1,6.1-2.42,13.359-5.38,19.52c-2.25,4.59-7.46,7.64-12.59,6.85c-6.3-0.949-11.69-6.21-12.92-12.449
		c-1.33-4.801,0.15-9.721,1.73-14.25c-1.21-0.45-2.42-0.891-3.63-1.311c0.1-0.34,0.29-1.02,0.38-1.359
		c5.07-0.91,10.05-2.75,15.25-2.681c-0.11,0.23-0.32,0.69-0.43,0.92c-5.53,3.66-12.26,8.311-12.01,15.78
		c-0.48,6.36,6.27,12.32,12.46,9.94c5.4-1.771,6.75-7.971,7.62-12.891C48.46,557.87,49.59,550.81,55.53,548.11L55.53,548.11z"/>
	<path d="M196.76,577.43c8.03-6.5,19.54-7.181,28.99-3.65c3.38,1.09,6.35,3.36,9.97,3.71c1.07-1.2,2.14-2.41,3.34-3.479
		c2.46,1.08,1.94,4.27,2.35,6.5c-0.02,6.649,1.72,13.369,0.16,19.949c-0.88-0.149-1.76-0.3-2.64-0.43
		c-2.26-6.13-4.95-12.18-8.77-17.5c-4.23-6.07-12.42-7.59-19.32-6.479c-5.7,0.859-11.84,5.279-11.65,11.569
		c-0.44,4.91,2.96,9.311,6.89,11.851c9.45,5.109,19.68,8.68,29,14.06c6.99,3.95,11.17,12.2,10.42,20.16
		c-0.74,15.1-15.53,27.439-30.47,26.18c-7.9-0.45-14.65-4.89-22.05-7.1c-1.66,1.95-3.26,3.979-5.14,5.74
		c-2.12-2.45-1.61-5.881-1.97-8.87c-0.04-6.681-0.32-13.36-0.31-20.03c0.32-0.76,0.96-2.28,1.28-3.04c1.12,0.78,2.33,1.72,2.72,3.13
		c3.09,8.48,7.64,16.87,14.87,22.51c7.23,5.62,18.44,5.351,24.98-1.229c4.64-4.66,5.29-12.7,1.15-17.9
		c-6.44-8.41-17.05-11.43-26.11-16.05c-5.16-2.46-10.72-5.05-13.75-10.189C184.76,597.39,187.75,583.87,196.76,577.43L196.76,577.43
		z"/>
	<path d="M552.97,584.64c7.511-7.7,18.11-13.261,29.101-12.08c11.55,0.96,21.779,8.42,27.869,18.02
		c3.24,5.811,5.49,12.92,3.65,19.53c-3.859,0.59-7.77,0.72-11.67,0.76c-15.16,0.141-30.32,0.53-45.479,0.54
		c-2.011,11.5,0.479,24.24,8.659,32.91c5.91,6.73,15.17,9.67,23.95,8.54c8.19-1.53,14.97-6.54,20.94-12.07
		c0.64,0.12,1.91,0.37,2.55,0.49c0.07,3.66-2.83,6.32-5.23,8.69c-14.729,12.93-39.439,13.989-54.079,0.34
		C534.54,633.85,535.33,601.58,552.97,584.64L552.97,584.64z"/>
	<path d="M626.48,575.66c0.619-1.18,0.89-3,2.64-2.62c7.46,0.011,14.92,0.061,22.39-0.189c2.12,6.22,2.11,12.819,2.971,19.27
		c4.77-7.87,11.81-14.85,20.75-17.649c8.68-2.66,18.699-1.471,26.34,3.51c7.26,5.03,8.609,14.5,8.949,22.67
		c0.221,14.33-0.59,28.67-0.319,43.01c0.229,2.82,0.05,6.29,2.649,8.16c2.591,1.82,5.761,2.46,8.67,3.63
		c-0.05,0.891-0.1,1.78-0.14,2.68c-10.71-1.47-21.55-1.359-32.3-0.529c-1.73,0.2-3.42-0.24-5.1-0.471
		c0.149-0.85,0.319-1.689,0.5-2.52c2.949-0.62,6.06-1.12,8.619-2.81c2.931-2.141,2.65-6.061,3.11-9.25
		c0.57-9.301,0.51-18.631,0.67-27.94c-0.07-7.75-0.06-15.66-2.58-23.08c-1.74-5.28-5.99-9.87-11.39-11.439
		c-7.391-2.24-15.391,1.539-20.101,7.279c-6.34,7.19-8.609,16.851-9.949,26.09c-1.17,9.681-1.521,19.46-0.96,29.19
		c0.5,3.83,0.33,8.81,4.29,10.92c2.729,1.91,7.85,0.3,8.52,4.6c-6.89,0.551-13.79-0.35-20.69-0.14
		c-5.81-0.1-11.619,0.45-17.409-0.06c-0.091-0.641-0.28-1.92-0.38-2.561c3.899-1.96,10.47-1.47,11.659-6.729
		c1.98-10.21,1.511-20.681,1.801-31.021c-0.08-9.05,0.31-18.109-0.4-27.14c-0.51-3.43-0.86-7.18-3.24-9.9
		C633.69,577.66,629.7,577.22,626.48,575.66L626.48,575.66z"/>
	<path d="M333.32,577.68c0-1.08,0.02-2.15,0.07-3.21c7.61-0.391,15.24-0.15,22.87-0.19c0.52,20.49,0.44,40.98,1.49,61.45
		c0.27,6.34,3.8,12.67,9.7,15.36c4.22,1.979,9.21,1.1,13.2-1.04c6.51-3.561,11.7-9.4,14.59-16.23c1.99-8.229,1.94-16.76,2.18-25.17
		c0.06-7.72,0.14-15.44-0.19-23.16c-0.55-1.78-0.72-3.77-1.92-5.26c-2.53-2.08-5.95-2.09-9.04-2.51c-0.01-1.101,0-2.19,0.03-3.271
		c8.29-0.37,16.6-0.14,24.9-0.149c1.37,22.06-0.06,44.159,0.11,66.239c0.09,3.33,0.15,6.851,1.74,9.88c1.66,3,5.39,3.221,8.34,4.07
		c0.09,0.84,0.18,1.69,0.28,2.54c-5.74,1.63-11.78,0.561-17.66,0.89c-2.46-0.14-6.05,0.65-7.27-2.18
		c0.41-5.13,0.73-10.28,0.38-15.43c-6.42,6.78-13.06,14.02-22.18,17.06c-8.68,3.12-19.78,2.8-26.42-4.37
		c-4.41-4.26-4.93-10.71-5.22-16.479c-1.05-10.62-0.91-21.32-1.14-31.98c-0.82-8.38,0.13-16.84-0.85-25.21
		C338.73,578.39,336.03,577.99,333.32,577.68L333.32,577.68z"/>
	<path fill="#FFFFFF" d="M565.06,583.629c4.131-4.239,9.69-7.939,15.87-7.47c11.53,0.92,20.261,13.65,17.32,24.78
		c-1.21,2.85-4.14,4.64-7.13,5.08c-11.57,1.72-23.29,0.58-34.91,0.16C557.54,598.209,559.43,589.77,565.06,583.629L565.06,583.629z"
		/>
	<path fill="#FFFFFF" d="M471.33,578.08c7.03-1.92,15.29-0.55,20.67,4.58c4.17,4.21,6.23,10.05,7.23,15.79
		c1.77,11.351,1.29,23.09-1.34,34.271c-1.79,8.149-7.43,15.279-14.94,18.899c-4.49,2.13-9.99,2.05-14.36-0.319
		c-5.83-3.11-10.38-8.511-12.43-14.79c-3.17-9.28-2.96-19.261-2.44-28.91c0.74-7.811,2.271-15.931,7.01-22.38
		C463.28,581.68,467.11,579.15,471.33,578.08L471.33,578.08z"/>
	<path d="M62.74,582.62c4.07-1.09,8.28-1.46,12.47-1.64c2.56,12.28,4.96,24.61,8.48,36.66c0.81,2.85,2.06,5.66,2.04,8.67
		c-3.54,1.39-7.2,2.53-10.89,3.45c1.11-3.86,5.39-5.98,5.84-10.12c0.36-4.05-0.33-8.141-1.59-11.971
		c-6.31,0.391-12.37,2.421-18.51,3.79c-6.41,1.771-13.06,2.971-19.13,5.73c-3.65,2.05-1.54,6.58-2.33,9.89
		c-3.19-7.67-4.22-16.05-6.41-24.029c0.32-0.011,0.97-0.04,1.3-0.061c0.86,1.86,1.25,4.29,3.22,5.36c2.01,1.479,4.63,0.87,6.86,0.42
		c11.24-2.521,22.46-5.2,33.41-8.79c-1.08-4.62-2-9.84-5.86-13.03C69.15,584.62,65.57,584.36,62.74,582.62L62.74,582.62z"/>
	<path d="M85.44,628.87c0.37,0.13,1.11,0.38,1.48,0.51c2.01,6.601,5.47,12.761,6.79,19.57c-2.16-1.649-3.51-5.109-6.66-4.729
		c-3.56,0.14-6.87,1.62-10.2,2.739c-5.89,2.25-11.88,4.33-17.45,7.32c-4.37,2.19-6.57,7.71-5.16,12.35
		c0.75,3.391,2.17,6.711,4.33,9.45c2.46,2.9,6.65,4.311,10.34,3.37c6.94-1.5,13.54-4.229,20.18-6.67c3.54-1.55,7.92-3.07,9.17-7.16
		c-0.17-1.56-0.55-3.08-0.84-4.6c0.39,0.06,1.18,0.189,1.57,0.26c1.7,5.44,4.69,10.53,5.5,16.22c-1.4-1.409-2.58-3.04-4.17-4.22
		c-2.06-0.63-4.25-0.16-6.25,0.44c-8.69,2.649-16.99,6.779-26.03,8.17c-6.01,1.05-11.32-3.271-14.14-8.19
		c-3.07-5.46-5.19-11.899-3.93-18.2c0.83-4.47,4.97-7.199,8.9-8.8c7.42-2.95,15.08-5.29,22.28-8.79c1.6-0.84,3.29-1.689,4.41-3.14
		C86.12,632.82,85.6,630.82,85.44,628.87L85.44,628.87z"/>
	<path d="M324.35,679.89c0.14-1.5,0.41-4.15,2.64-3.7c8.03-0.05,16.05,0.479,24.08,0.71c7.21,0.21,14.58-1.87,21.67-0.021
		c-0.08,0.98-0.15,1.971-0.23,2.971c-2.96,0.62-6.31,0.6-8.75,2.63c-2.43,1.91-3.31,5.04-3.88,7.95
		c-1.63,9.62-1.48,19.42-1.59,29.149c0.09,9.48-0.29,19.07,1.73,28.391c1.58,7.26,7.87,12.77,14.89,14.64
		c7.37,1.89,15.41,1.97,22.57-0.82c6.49-2.85,9.99-9.689,11.33-16.319c1.99-10.82,1.96-21.88,1.99-32.841
		c-0.05-7.92,0.37-16-1.79-23.71c-0.81-2.56-2.16-5.1-4.48-6.569c-2.6-1.391-5.61-1.58-8.38-2.48c0.1-1.2,0.22-2.38,0.37-3.56
		c5.51-0.561,10.96,0.75,16.47,0.6c5,0.15,9.96-0.859,14.96-0.76c1.93-0.35,2.94,1.26,3.91,2.6c-2.65,1.86-6.19,1.811-8.68,3.95
		c-2.81,2.28-3.96,5.94-4.53,9.38c-1.09,9.141-0.94,18.36-1.08,27.55c-0.09,11.32,0.71,22.961-2.83,33.891
		c-2.34,7.27-8.41,12.859-15.3,15.83c-9.22,4.12-19.53,4.22-29.43,3.72c-9.66-0.77-20.45-2.76-26.85-10.76
		c-5.74-6.82-5.67-16.28-5.52-24.7c0.02-12.66,0.19-25.32,0.15-37.99c-0.16-5.29-0.08-10.95-2.71-15.71
		C332.6,680.55,327.92,681.129,324.35,679.89L324.35,679.89z"/>
	<path d="M435.29,680.08c-0.83-1.93,0.26-4.27,2.62-3.76c8.52,0.5,17.05,0.49,25.59,0.61c18.55,21.16,37.32,42.16,56.94,62.34
		c0.21-13.01,0.29-26.03,0.119-39.04c-0.29-5.36-0.319-11.78-4.859-15.48c-3.44-3.06-8.2-3.35-12.41-4.63
		c0.01-1.05,0.03-2.09,0.06-3.12c3.49-1,7.061,0.101,10.601,0.07c7.97,0.07,15.97,0.32,23.91-0.54c1.63-0.29,3.229,0.19,4.8,0.57
		c-0.01,0.97-0.03,1.95-0.04,2.939c-3.96,1.23-8.45,1.54-11.601,4.54c-3.25,2.641-3.77,7.07-4.14,10.96
		c-0.32,9.37,0.26,18.75,0,28.12c1.08,13.66-0.35,27.33-0.14,41c-0.45,2.771,0.87,6.37-1.54,8.46c-2.49,0.5-4.07-1.66-5.67-3.12
		c-14.87-15.5-29.11-31.569-43.34-47.649c-4.98-5.8-10.18-11.41-14.87-17.44c-0.82,8.891-0.44,17.82-0.52,26.73
		c-0.07,8.77-0.03,17.6,1.22,26.29c0.99,6.16,7.24,9.63,12.96,10.26c1.27,0.229,4.32,0.35,3.38,2.5c0.35,1.84-2.16,1.58-3.28,1.72
		c-10.67-0.689-21.44-1.06-32.08,0.3c-1.49,0.23-2.98-0.06-4.43-0.3c-0.28-0.54-0.83-1.62-1.1-2.16c2.18-2.59,5.75-1.909,8.67-2.77
		c2.78-0.59,5.46-2.34,6.53-5.061c1.86-4.359,1.95-9.189,1.97-13.85c-0.01-15.71,0.06-31.42-0.38-47.12
		c-1.24-6.689-4.36-13.22-9.84-17.439C441.79,681.85,438.32,681.39,435.29,680.08L435.29,680.08z"/>
	<path d="M550.5,677.03c5.48-0.55,10.99,0.061,16.49,0.15c10.16,0.39,20.33-0.66,30.49-0.2c0.09,1.02,0.18,2.06,0.279,3.1
		c-3.51,1.34-7.99,0.721-10.76,3.601c-3.1,5.01-2.5,11.149-3.08,16.779c-0.439,12.37-0.27,24.761-0.01,37.141
		c0.89,8.979-0.34,18.399,2.88,27.01c1.33,3.64,5.69,3.73,8.93,4.13c0.971,0.4,3.261,0,2.62,1.8c0.36,2.23-2.72,2.71-4.35,2.59
		c-8.971-0.189-17.92-1.42-26.91-0.96c-5.59-0.13-11.1,1.21-16.69,0.841c-0.06-1.21-0.09-2.41-0.09-3.601
		c3.181-0.74,6.74-0.95,9.351-3.13c1.659-1.35,2.159-3.54,2.58-5.52c1.229-9.32,1.06-18.74,1.229-28.12
		c-0.13-14.73,0.47-29.521-1.29-44.17c-0.52-2.21-0.97-4.79-2.99-6.12c-2.79-1.28-5.899-1.431-8.81-2.271
		C550.4,679.05,550.44,678.03,550.5,677.03L550.5,677.03z"/>
	<path d="M630.43,684.12c8.91-6.12,19.87-8.8,30.601-8.359c14.63-0.23,29.7,6.029,38.489,18c7.011,9.029,10.24,20.63,9.681,31.989
		c-1.21,16.42-11,31.45-24.72,40.28c-9.57,6.15-21.301,8.4-32.541,7.34c-13.399-0.729-26.34-7.49-34.72-17.95
		c-8.319-10.529-10.569-24.75-8.609-37.76C610.5,703.94,619.19,691.87,630.43,684.12L630.43,684.12z"/>
	<path d="M716.62,679.8c-0.78-2.23,1.18-3.87,3.31-3.48c8.4,0.62,16.82,0.44,25.24,0.58c16.71,19.15,33.71,38.05,51.23,56.47
		c1.8,2.021,3.76,3.891,5.8,5.681c0.18-8.48-0.09-16.971,0.18-25.46c-0.01-7.631,0.34-15.36-1.24-22.881
		c-0.93-3.859-4.09-6.85-7.67-8.319c-2.83-1.05-5.87-1.391-8.689-2.431c0-0.93,0.01-1.84,0.029-2.75
		c3.63-1.449,7.45,0.011,11.21-0.119c7.99,0.039,16.011,0.3,23.961-0.591c1.609-0.25,3.17,0.41,4.729,0.73
		c0.271,4.41-4.729,3.479-7.51,4.689c-4.96,1.58-8.16,6.36-8.46,11.45c-0.5,11.38,0.14,22.79-0.021,34.181
		c0.19,13.689-0.149,27.38-0.3,41.079c0.061,1.641-0.65,3.16-1.18,4.69c-3.78,0.05-5.76-3.44-8.23-5.67
		c-16.67-17.39-32.5-35.55-48.42-53.61c-2.359-2.699-4.74-5.39-6.689-8.39c-0.461-1.25-1.801-0.44-2.58-0.12l1.529,0.3
		c-0.619,11.59-0.1,23.23-0.279,34.851c-0.19,6.069,0.489,12.109,1.13,18.14c2.189,6.46,9.17,9.61,15.6,9.63
		c0.33,0.67,0.67,1.351,1.03,2.04c-0.43,0.62-0.84,1.25-1.24,1.89c-12.58-0.5-25.24-1.189-37.76,0.66
		c-1.08-0.939-2.021-2.029-1.771-3.56c4.21-2.36,10.051-0.84,13.471-4.851c2.72-3.71,3.02-8.579,3.319-13.02
		c0.2-15.71-0.119-31.41-0.18-47.12c-0.58-7.86-3.84-15.91-10.34-20.68C723.12,681.69,719.56,681.419,716.62,679.8L716.62,679.8z"/>
	<path d="M106.43,684.14c-0.42-1.88-0.82-3.771-0.62-5.69c3.01,4.66,4.76,10.01,7.77,14.69c4.65,7.64,8.81,16.859,6.06,25.93
		c-3.67,13.4-20.75,20.79-33.02,14.2c-8.18-4.25-11.61-13.32-15.31-21.18c-2.23-4.681-5.33-8.921-7.33-13.711
		c2.66,1.631,4.29,5.801,7.98,4.82c6.86-2.27,13.06-6.1,19.54-9.229C96.77,691.209,102.68,688.99,106.43,684.14L106.43,684.14z"/>
	<path fill="#FFFFFF" d="M653.6,681.41c5.061-1.04,10.62-0.62,15.101,2.13c7.6,4.41,11.899,12.82,13.859,21.12
		c2.38,9.47,2.23,19.32,1.801,29c-0.9,8.82-2.521,18.141-8.2,25.271c-4.63,6.229-12.351,10.54-20.271,9.35
		c-9.93-0.93-16.8-9.79-19.79-18.64c-4.54-13.771-4.51-28.771-2.029-42.94C636.12,695.99,642.32,684.37,653.6,681.41L653.6,681.41z"
		/>
	<path fill="#FFFFFF" d="M108.14,692.75c0.69-0.189,2.08-0.56,2.78-0.75c4.08,5.63,7.26,12.65,5.53,19.75
		c-3.66,11.98-17.43,19.811-29.58,16.62c-6.5-1.5-10.82-7.609-12.31-13.79c-0.69-4.46,3.62-6.87,6.93-8.63
		C90.29,701.39,99.15,696.919,108.14,692.75L108.14,692.75z"/>
	<path d="M131.07,724.24c3.77,4.41,6.48,9.61,10.06,14.17c3.89,5.66,8.41,10.891,11.91,16.8c-2.62,2.841-5.29,5.641-8.17,8.221
		c1.18-4.83,3.16-10,1.3-14.92c-2.16-4.351-5.18-8.271-8.68-11.61c-5.771,2.55-10.58,6.96-15.72,10.59
		c1.97,2.771,3.83,5.97,7.02,7.51c2.63,0.44,5.25-0.229,7.81-0.779c-0.1,0.319-0.32,0.97-0.42,1.3c-5.39,2.68-9.55,7.22-14.89,9.939
		c1.35-2.54,3.85-4.8,3.58-7.899c-0.23-3.32-2.32-6.15-4.25-8.72c-3.29,1.09-5.76,3.84-8.64,5.71c-3.18,2.479-8.22,5.29-6.41,10.14
		c2.26,5.02,6.06,9.49,10.87,12.22c3.69,2.24,8.07,1.311,12.13,1.29c-3.42,2.69-7.68,3.92-11.6,5.69
		c-5.2-7.16-10.54-14.221-15.38-21.63c-2.53-4.021-5.8-7.561-7.83-11.87c2.05,1.239,3.6,3.64,6.09,3.93c3.9-0.85,7-3.6,10.21-5.81
		c7.48-5.78,15.79-10.681,22.29-17.61C131.77,728.7,131.27,726.49,131.07,724.24L131.07,724.24z"/>
	<path d="M156.17,760.709c3.36,0.681,4.82,4.33,7.18,6.48c1.31,1.07,1.7,2.7,1.25,4.32c-2.22,14.119-4.02,28.29-6.11,42.42
		c5.94-4.28,11.31-9.261,16.81-14.07c1.93-1.81,4.11-3.58,5.03-6.15c0.83-3.3-1.5-6-2.53-8.92c5.07,4.45,9.53,9.62,13.58,15
		c-3.19-1.35-6.69-4.52-10.21-2.109c-10.63,7.97-19.92,17.67-30.79,25.31c1.65-15.939,4.81-31.7,6.55-47.64
		c-7.43,6.609-15.4,12.81-21.55,20.689c-2.55,3.19,0.38,6.87,1.76,9.88c-3.14-1.579-4.88-4.76-7.22-7.229
		c-2.15-2.66-5.14-4.86-6.11-8.28c1.76,1.21,3.21,2.92,5.19,3.79c2.88,0.73,5.32-1.439,7.41-3.07c5.98-5.43,12.05-10.76,17.89-16.35
		c3.41-3.05,3.96-7.939,3.36-12.24C157.28,762.08,156.54,761.16,156.17,760.709L156.17,760.709z"/>
	<path d="M184.35,809.11c2.12-3.55,5.9-5.57,8.86-8.32c11.1,10.61,21.86,21.641,33.94,31.181c-1.85,3.6-4.56,6.68-7.38,9.54
		c-0.33-3.021,0.76-5.98,0.47-8.971c-0.771-5.31-5.38-8.72-8.98-12.199c-7.34,6.909-13.99,14.51-20.69,22.039
		c-2.09,2.58-4.51,4.98-5.89,8.061c-0.62,3.37,2.5,5.57,4.17,8.09c-3.45-1.15-5.66-4.28-8.35-6.54c-3.44-3.43-7.23-6.51-10.48-10.12
		c3.03,0.9,5.75,3.54,9.12,2.28c2.91-1.81,5.03-4.57,7.43-6.95c6.78-6.939,13.14-14.27,19.32-21.74c-3.02-3.26-6.33-6.689-10.8-7.8
		C191.43,806.53,187.87,808.33,184.35,809.11L184.35,809.11z"/>
	<path d="M227.63,872.74c2.21-9.45,10.51-17.3,20.24-18.43c7.64-0.851,15.87,1.5,21.26,7.16c2.69,2.59,4.56,5.84,6.68,8.89
		c0.95-0.04,2.85-0.12,3.8-0.16c-1.81,3.92-3.93,7.69-5.69,11.65c-0.33,0.05-0.99,0.149-1.32,0.2c0.36-5.36,0.83-11.131-1.95-15.98
		c-3.27-6.67-11.54-10.37-18.64-7.97c-11.61,3.56-20.36,16.25-17.97,28.439c1.23,7.53,8.22,14.08,16.08,13.431
		c5.15-0.66,7.35-5.931,9.02-10.181c1.1-3.67-2.99-5.569-5.04-7.8c2.29-0.13,3.98,1.59,5.83,2.66c4.47,3.09,9.48,5.38,13.65,8.9
		c-2.54-0.25-5.05-0.73-7.6-0.78c-2.62,3.34-4.49,7.25-7.4,10.35c-8.1,0.271-16.67-1.819-22.81-7.35
		C229.23,890.23,225.92,881.169,227.63,872.74L227.63,872.74z"/>
	<path d="M709.79,874.28c2.24-1.24,4.39-2.7,6.85-3.47c2.301,3.04,4.17,6.38,5.99,9.729c-3.8-0.41-6.689-3.67-10.61-3.52
		c-4.189,0.07-7.96,2.31-11.649,4.06c-0.601,1.58,0.75,3.221,1.24,4.721c4.92,10.01,9.6,20.21,15.62,29.619
		c2.27,3.641,6.899,1.53,10.069,0.5c-1.46,2.73-4.85,3.21-7.31,4.69c-5,2.11-9.521,5.48-14.851,6.7c1.94-2.061,5.29-3.431,5.46-6.61
		c0.16-3.109-1.729-5.79-2.89-8.52c-4.5-9.351-9.21-18.61-14.51-27.53c-4.44,1.81-9.21,4.06-11.601,8.45
		c-1.529,2.649-1.46,5.779-1.449,8.75c-0.32,0.05-0.96,0.13-1.28,0.18c-1.38-3.55-2.66-7.13-3.76-10.76
		C686.73,885.75,698.62,880.709,709.79,874.28L709.79,874.28z"/>
	<path d="M298.64,881.8c8.58-0.86,17.64,3.6,21.69,11.319c2.86,5.69,3.81,12.55,1.53,18.62c-4.28,13.05-20.96,20.64-33.39,14.311
		c-6.59-2.95-11.34-9.37-12.31-16.521C273.91,896.1,285.12,882.51,298.64,881.8L298.64,881.8z"/>
	<path fill="#FFFFFF" d="M298.37,885.16c6.78-3.66,15.95,0.88,17.49,8.33c2.9,12.51-4.53,26.82-16.38,31.771
		c-8.08,3.39-17.47-4.261-17-12.69C282.83,901.709,288.07,889.919,298.37,885.16L298.37,885.16z"/>
	<path d="M665.79,895.3c2.63-0.931,5.24-2.311,8.1-2.04c-2.6,2.08-7.06,4.189-5.97,8.279c3.67,12.801,9.04,25.09,12.59,37.94
		c-3.62-1.16-6.729-3.37-10.029-5.16c-10.75-5.86-21.16-12.31-32.03-17.93c3.35,9.01,6.33,18.239,11.02,26.68
		c1.601,3.1,5.53,3.59,8.53,2.38c0.4,0.01,1.21,0.04,1.62,0.05c-0.32,0.37-0.97,1.11-1.29,1.471c-6.13,1.88-11.95,4.93-18.311,6
		c2.08-1.771,4.48-3.101,6.54-4.891c0.21-5.569-2.54-10.56-4.38-15.64c-2.18-5.23-3.689-10.76-6.359-15.76
		c-2.61-4.17-7.45-5.771-12.13-5.891c3.75-1.83,7.77-2.979,11.64-4.529c13.03,7.569,26.229,14.84,39.38,22.199
		c-2.77-8.529-5.36-17.199-9.24-25.29c-2.189-4.149-7.17-3.1-10.979-2.88C657.96,898.02,661.96,896.8,665.79,895.3L665.79,895.3z"/>
	<path d="M328.55,894.12c6.78,2.771,13.99,4.57,20.42,8.101c-1.99,0.06-3.99-0.12-5.979,0.029c-3.66,3.36-2.49,8.94-2.79,13.391
		c-0.59,7.17-0.36,14.37-0.41,21.56c0.3-0.03,0.9-0.08,1.2-0.109c5.78-7.07,11.88-13.881,17.58-21.021c1.36-1.979,3.32-4,2.85-6.6
		c-1.3-1.551-2.94-2.761-4.38-4.16c5.48,0.67,10.37,3.59,15.62,5.14c0.07,0.351,0.2,1.061,0.26,1.41c-1.97,0.04-4.05-0.41-5.92,0.38
		c-3.59,2.04-6.16,5.36-8.9,8.37c-7.3,8.53-14.45,17.23-22.1,25.45c-0.58,0.06-1.72,0.189-2.29,0.25
		c0.09-14.26,0.04-28.521-0.39-42.771c0-3.439-1.65-6.649-4.86-8.1C328.48,895.11,328.53,894.45,328.55,894.12L328.55,894.12z"/>
	<path d="M374.53,910.76c3.86,0.43,7.45,1.979,11.17,2.97c8.37,2.29,16.8,4.33,25.18,6.55c-0.06,3.73-0.21,7.48-0.54,11.21
		c-0.32-0.09-0.95-0.27-1.27-0.36c-1.5-4.439-3.57-9.42-8.17-11.399c-4.39-1.79-9.09-2.99-13.85-2.98
		c-1.79,5.91-3.58,11.83-4.81,17.891c3.21,0.62,6.48,2.1,9.79,1.239c2.76-1.069,3.72-4.47,6.58-5.319
		c-1.86,5.64-3.56,11.359-4.55,17.24c-0.33,0.119-0.98,0.34-1.31,0.46c-0.23-2.601,0.16-5.54-1.69-7.641
		c-2.38-2.62-6.07-3.37-9.35-4.189c-1.49,5.75-3.39,11.46-3.94,17.399c0.38,3.19,3.45,4.59,6.1,5.61
		c-1.76-0.061-3.51,0.05-5.26,0.18c-4.98-1.38-9.92-2.939-14.98-4c-0.18-0.34-0.53-1.029-0.7-1.37c2.07,0.051,4.15,0.08,6.23,0.021
		c1.99-2.83,3.14-6.11,3.94-9.45c2.19-9.09,4.99-18.04,6.45-27.29C380.34,914.11,375.95,913.26,374.53,910.76L374.53,910.76z"/>
	<path d="M592.17,918.09c8.71-1.931,17.36-4.16,26.04-6.25c1.75,3.659,3.55,7.329,4.74,11.229c-4.101-2.71-7.761-6.87-13.03-7.02
		c-5.04,0.18-9.85,1.949-14.59,3.51c1.32,6.729,2.26,13.68,4.91,20.04c0.26,5.14,1.95,10.069,3.34,14.99
		c0.57,2.609,2.65,5.05,5.56,4.789c5.721-0.05,11.551-2.079,15.9-5.819c3.07-2.601,3.67-6.74,5.32-10.181
		c0.909,4.221,0.939,8.54,0.979,12.851c-11.979,3.649-24.39,5.58-36.53,8.58c-1.26,0.27-2.52,0.149-3.76,0.03
		c1.75-0.98,3.641-1.7,5.28-2.86c1.82-1.65,0.76-4.33,0.91-6.44c-3.021-11.069-4.83-22.489-8.971-33.229
		c-2.319-0.48-4.659-0.931-6.949-1.51C584.7,919.1,588.55,918.97,592.17,918.09L592.17,918.09z"/>
	<path d="M419.25,921.5c7.85,1.021,15.72,1.841,23.57,2.851c3.6,0.68,7.33,1.81,10.04,4.41c4.23,3.97,4.14,11.659-0.28,15.46
		c-2.53,2.62-6.38,2.77-9.73,3.439c1.75,1.58,3.67,3.021,5.15,4.9c3.61,5.14,0.68,12.34,4.68,17.31c1.85,1.7,4.32,2.49,6.41,3.86
		c-3.75,0.11-7.47-0.61-11.12-1.36c-1.61-0.399-3.73-0.7-4.23-2.58c-1.12-5.439-0.45-11.109-1.68-16.52
		c-1.55-5.66-8.28-6.57-13.24-6.5c-0.95,5.96-2.07,11.97-2.1,18.01c0.48,3.42,4.46,3.68,6.92,5.061
		c-4.28,0.569-8.46-0.771-12.7-1.11c-3.1-0.67-6.54-0.311-9.27-2.17c2.38-0.601,5.89,0.58,7.26-2.17c1.61-2.94,1.71-6.41,2.26-9.65
		c0.87-9.05,3.02-17.99,3.2-27.09c0.39-3.11-3-4.04-5.22-4.95C419.19,922.4,419.23,921.8,419.25,921.5L419.25,921.5z"/>
	<path d="M564.89,923.3c4.891-0.771,9.83-1.15,14.74-1.87c0,0.319,0.021,0.939,0.03,1.25c-2.021,0.76-4.5,1.02-5.8,2.949
		c-0.95,2.53-0.431,5.33-0.37,7.98c0.8,9.86,1.68,19.74,3.31,29.52c0.63,3.421,4.8,2.921,7.351,3.591
		c-3.091,1.59-6.66,1.489-10.03,1.79c-1.87,0.05-3.73,0.09-5.58,0.14c2.46-6.8,1.03-14.07,0.38-21.04
		c-0.93-6.28-1.1-12.63-1.58-18.94c-1.229,0.79-2.57,1.78-2.31,3.45c-4.391,12.94-9.45,25.681-12.95,38.92
		c-2.53-2.47-3.93-5.77-5.91-8.63c-6.29-9.37-12.06-19.1-18.86-28.109c0.301,8.81,1.87,17.51,2.49,26.3
		c0.61,3.47,0.391,7.59,3.11,10.27c1.97,1.26,4.479,0.84,6.7,1.32c-1.95,1.34-4.42,1.26-6.66,1.65
		c-4.08,0.289-8.07,1.489-12.181,1.38c1.99-1.41,4.591-1.82,6.301-3.61c1.66-2.7,1.199-6.02,0.93-9.01
		c-1.08-7.95-1.73-15.95-2.53-23.92c-0.34-2.7-1.02-5.67-3.319-7.37c-1.92-0.83-4.03-1.03-6.011-1.61
		c4.641-2.27,10.12-1.18,15.08-2.35c3.511,5.47,7.021,10.939,10.75,16.27c3.65,5.21,6.46,11.01,10.66,15.84
		C557.56,947.709,561.49,935.56,564.89,923.3L564.89,923.3z"/>
	<path fill="#FFFFFF" d="M431.94,925.15c4.43-0.11,9.29-0.31,13.11,2.33c4.6,3.39,4.85,11.03,0.59,14.81
		c-4.24,4.32-11.01,3.19-16.38,2.41C429.28,938.08,431.26,931.7,431.94,925.15L431.94,925.15z"/>
	<path d="M463.7,928.28c3.95,0.4,8.37-0.72,12.05,0.73c9.63,11.38,19.04,22.979,28.72,34.33c-0.06-9.421,1.75-18.95-0.029-28.29
		c-1.24-3.841-5.74-4.19-8.97-5.33c4.12-0.99,8.39-0.48,12.589-0.601c2.671,0.101,5.561-0.479,7.98,0.99
		c-2.44,0.64-4.87,1.32-7.18,2.35c-2.021,3.75-1.49,8.08-1.681,12.19c-0.729,10.229-0.37,20.52-1.109,30.76
		c-2.71-1.51-4.4-4.17-6.351-6.47c-8.4-10.01-16.62-20.17-24.99-30.21c0,9.95-0.75,20,0.92,29.86c0.91,3.939,5.44,4.369,8.71,5.229
		c-3.94,1.7-8.21,0.35-12.32,0.6c-2.84-0.239-6.02,0.69-8.56-0.939c3.21-0.68,8.08-0.53,8.57-4.82c1.18-8.63,0.08-17.42,0.47-26.109
		c0.49-5.58-2.91-11.96-8.72-13.061C463.77,929.19,463.72,928.59,463.7,928.28L463.7,928.28z"/>
	<path d="M609.23,933.79c1.289-2.29,1.09-5.14,2.689-7.29c0.8,3.69,1.271,7.46,2.34,11.101c0.69,2.58,1.71,5.189,1.24,7.92
		c-1.58-2.22-2.74-4.91-5.19-6.33c-2.64-0.8-5.46-0.271-8.13,0.02c-0.729-0.529-1.449-1.04-2.17-1.55
		C603.25,937.129,607.09,936.6,609.23,933.79L609.23,933.79z"/>
	<path fill="#303030" d="M565.03,932.12c-0.261-1.67,1.08-2.66,2.31-3.45c0.48,6.311,0.65,12.66,1.58,18.94
		c0.65,6.97,2.08,14.24-0.38,21.04c1.85-0.05,3.71-0.09,5.58-0.14c-3.59,0.56-7.34,1.88-10.93,0.689c2.02-1.24,5.069-1.39,6.06-3.83
		c0.4-1.89,0.14-3.83,0.01-5.7c-1.069-8.579-1.42-17.21-2.34-25.79C566.45,933.44,565.51,932.56,565.03,932.12L565.03,932.12z"/>
	<path d="M399.1,960c2.98-1.489,5.24-3.96,7.53-6.3c-0.09,4.271-3.25,7.66-4.55,11.61c-4.2-1.21-8.46-2.19-12.69-3.22
		C392.68,961.75,396.1,961.55,399.1,960L399.1,960z"/>
	<path fill="#303030" d="M378.61,959.62c1.75-0.13,3.5-0.24,5.26-0.18c4.98,1.24,10.17,1.43,15.23,0.56
		c-3,1.551-6.42,1.75-9.71,2.091c4.23,1.029,8.49,2.01,12.69,3.22c-2.83,0.33-5.53-0.67-8.21-1.36
		C388.77,962.56,383.55,961.53,378.61,959.62L378.61,959.62z"/>
	<path fill="#CFCFCF" d="M514.49,998.61c7.279-0.26,14.54-0.95,21.819-1.2l2.03,1.2H514.49L514.49,998.61z"/>
</g>
</svg>
