<?xml version="1.0" encoding="utf-8"?>
<!-- Generator: Adobe Illustrator 16.0.4, SVG Export Plug-In . SVG Version: 6.00 Build 0)  -->
<!DOCTYPE svg PUBLIC "-//W3C//DTD SVG 1.1//EN" "http://www.w3.org/Graphics/SVG/1.1/DTD/svg11.dtd">
<svg version="1.1" id="Layer_1" xmlns="http://www.w3.org/2000/svg" xmlns:xlink="http://www.w3.org/1999/xlink" x="0px" y="0px"
	 width="126.654px" height="139.796px" viewBox="0 0 126.654 139.796" enable-background="new 0 0 126.654 139.796"
	 xml:space="preserve">
<path fill-rule="evenodd" clip-rule="evenodd" fill="#FFFFFF" d="M0.146,0C42.34,0,84.398,0,126.63,0c0,0.441,0,0.873,0,1.304
	c0,35.94-0.005,71.88,0.024,107.82c0.001,0.979-0.317,1.398-1.184,1.804c-20.297,9.491-40.579,19.013-60.85,28.559
	c-0.899,0.423-1.598,0.406-2.492-0.014c-20.312-9.556-40.635-19.085-60.972-28.586C0.286,110.48-0.001,110.033,0,109.07
	c0.044-28.171,0.047-56.343,0.068-84.514C0.075,16.79,0.119,9.022,0.146,1.255C0.146,0.855,0.146,0.455,0.146,0z M6.773,6.64
	c0,0.47,0.002,0.871,0,1.272C6.746,13.43,6.698,18.95,6.693,24.468c-0.021,26.825-0.026,53.65-0.062,80.476
	c-0.001,0.842,0.229,1.275,1.022,1.646c18.231,8.518,36.45,17.063,54.658,25.63c0.781,0.367,1.381,0.346,2.154-0.018
	c18.135-8.532,36.278-17.044,54.439-25.52c0.903-0.422,1.12-0.917,1.119-1.845c-0.023-32.306-0.02-64.61-0.02-96.916
	c0-0.431,0-0.862,0-1.283C82.183,6.64,44.536,6.64,6.773,6.64z"/>
<path fill-rule="evenodd" clip-rule="evenodd" fill="#FFFFFF" d="M91.584,38.732c4.295,0,8.41,0,12.605,0
	c0.025,0.411,0.068,0.768,0.068,1.124c0.004,10.179,0.081,20.359-0.045,30.537c-0.038,3.041-0.321,6.158-1.063,9.097
	c-1.604,6.362-5.923,10.318-12.171,12.062c-5.384,1.504-10.841,1.46-16.209-0.124c-7.25-2.141-11.743-7.89-12.407-15.777
	c-0.229-2.724-0.356-5.464-0.369-8.196c-0.045-9.075-0.018-18.151-0.018-27.227c0-0.481,0-0.963,0-1.501c4.257,0,8.371,0,12.638,0
	c0,0.511-0.001,0.987,0,1.463c0.014,9.893-0.011,19.786,0.076,29.678c0.016,1.692,0.363,3.417,0.802,5.062
	c1.001,3.755,4.072,5.84,7.989,5.603c4.65-0.281,7.032-2.69,7.787-7.998c0.212-1.49,0.299-3.01,0.304-4.517
	c0.026-9.239,0.013-18.478,0.013-27.717C91.584,39.818,91.584,39.333,91.584,38.732z"/>
<path fill-rule="evenodd" clip-rule="evenodd" fill="#FFFFFF" d="M54.362,41.518c-1.72,3.633-3.374,7.125-5.059,10.685
	c-2.398-2.052-4.976-3.426-8.117-3.478c-1.576-0.026-2.979,0.411-4.204,1.403c-1.662,1.345-1.959,3.653-0.494,5.193
	c0.79,0.831,1.808,1.566,2.863,2.001c2.336,0.96,4.801,1.604,7.14,2.558c3.578,1.458,6.796,3.437,8.545,7.114
	c1.557,3.273,1.421,6.745,1.062,10.218c-1.189,11.494-10.666,15.721-19.66,15.342c-5.593-0.235-10.597-2.135-15.131-5.358
	c-0.472-0.336-0.92-0.566-0.524-1.344c1.717-3.382,3.362-6.8,5.072-10.282c1.051,0.832,2.024,1.676,3.07,2.417
	c2.655,1.883,5.531,3.158,8.888,2.923c2.553-0.18,4.621-1.736,5.166-3.814c0.486-1.858,0.045-3.485-1.483-4.586
	c-1.206-0.87-2.586-1.554-3.975-2.102c-2.045-0.807-4.189-1.358-6.252-2.125c-5.445-2.023-8.688-5.68-8.853-11.763
	c-0.149-5.554,0.853-10.638,4.968-14.729c2.729-2.713,6.041-4.185,9.822-4.475C43.3,36.85,48.903,38.538,54.362,41.518z"/>
<g>
</g>
<g>
</g>
<g>
</g>
<g>
</g>
<g>
</g>
<g>
</g>
</svg>
