<?xml version="1.0" encoding="utf-8"?>
<!-- Generator: Adobe Illustrator 16.0.4, SVG Export Plug-In . SVG Version: 6.00 Build 0)  -->
<!DOCTYPE svg PUBLIC "-//W3C//DTD SVG 1.1//EN" "http://www.w3.org/Graphics/SVG/1.1/DTD/svg11.dtd">
<svg version="1.1" id="Layer_1" xmlns="http://www.w3.org/2000/svg" xmlns:xlink="http://www.w3.org/1999/xlink" x="0px" y="0px"
	 width="360px" height="360px" viewBox="0 0 360 360" enable-background="new 0 0 360 360" xml:space="preserve">
<g>
	<path fill="#FFFFFF" d="M127.065,214.941l57.49-156.847l53.533,156.847l48.324-122.478c0.24-1.159,3.605-8.84,3.605-12.44
		c0-12.298-11.996-12.598-27.893-13.198v-9.896h72.883v9.896c-21.596,1.8-27.594,4.2-33.893,24.295l-67.193,182.561l-54.898-155.655
		l-56.749,155.655L56.068,91.72C50.67,75.224,47.37,68.925,25.475,66.226v-9.297h77.382v9.596c-3.299,0.301-11.697,0.602-14.397,1.2
		c-2.398,0.602-7.098,2.101-7.098,10.499c0,2.4,0.6,4.798,2.4,10.798L127.065,214.941z"/>
	<path fill="#FFFFFF" d="M149.436,160.578c0,12.299,0,24.297,2.446,34.193c5.303,20.997,20.801,32.693,38.543,32.693
		c13.869,0,26.309-7.199,33.65-18.296c9.789-14.696,8.105-32.692,8.105-55.487V80.831c-0.613-26.694-7.855-31.492-24.984-32.993
		V37.94h60.422v9.596c-15.297,3.001-24.781,8.998-25.188,35.094v71.95c-0.613,31.793-0.816,56.688-21.822,74.385
		c-11.219,9.297-22.025,11.697-34.059,11.697c-17.13,0-34.465-5.1-46.497-22.495c-11.217-16.495-11.625-31.794-12.032-47.989V75.431
		c-0.204-11.398,0.41-15.708-2.24-20.506c-3.264-6-13.838-6.588-23.016-7.189V37.94h71.767v10.096
		c-16.111,0.899-24.485,4.701-25.097,27.496v102.543"/>
</g>
<path fill="#FFFFFF" d="M180.104,275.736h-1.756h-1.76c-0.068,0-6.394,0.043-7.721,0.152c-1.329,0.104-3.846,0.275-4.675,0.527
	c-1.689,0.504-2.654,1.686-3.284,3.416c-0.629,1.73-0.924,4.007-1.268,6.705h-1.621h-1.621c0.311-3.543,0.482-5.693,0.578-7.783
	c0.094-2.087,0.055-4.111,0.111-7.4c-0.002,0.143,8.662-0.152,10.863-0.01c3.5-0.124,12.356-0.143,15.948-0.143
	c2.775,0,15.615,0.059,20.232,0.109c4.617,0.049,8.541,0.086,8.541,0.043c0.121,3.244,0.121,5.188,0.16,7.252
	c0.039,2.068,0.115,4.262,0.391,8.02h-1.656h-1.654c-0.137-3.715-0.621-6.056-1.396-7.574c-0.775-1.52-1.846-2.215-3.154-2.635
	c-0.898-0.295-2.156-0.465-3.355-0.558c-1.199-0.099-9.863-0.122-10.52-0.122h-1.758h-1.76v23.541v23.541
	c0,2.993,0.57,4.492,1.449,5.244c0.879,0.744,2.068,0.744,3.311,0.744h3.318h1.24v1.562v1.562c-1.828-0.129-5.699-0.01-7.578-0.102
	c-1.881-0.096-3.875-0.072-5.771-0.072s-3.893-0.023-5.771,0.072c-1.881,0.092-5.689-0.027-7.518,0.102v-1.562v-1.562h1.243h1.242
	c1.242,0,4.541,0,5.455-0.744c0.914-0.752,1.516-2.251,1.516-5.244v-23.541V275.736z"/>
<path fill="#FFFFFF" d="M150.746,285.475c-9.492-4.781-14.236-10.031-14.236-18.938c0-5.908,2.256-10.783,5.213-13.783
	c3.734-3.75,8.715-4.969,13.617-4.969c5.68,0,9.258,1.219,16.496,3.564c-0.391,4.125-0.545,6.375-0.545,9.842
	c0,1.782,0.078,3.471,0.078,5.252h-4.746c-0.078-3.563-0.158-6.47-1.557-9.188c-2.025-3.749-5.836-5.062-9.57-5.062
	c-7.781,0-11.207,5.062-11.207,10.501c0,5.343,2.492,7.874,11.518,12.655c10.895,5.719,18.208,9.469,18.208,21.656
	c0,13.406-8.87,20.625-19.375,20.625c-4.123,0-7.779-0.655-14.162-3.188c-2.799-1.123-3.111-1.217-4.591-1.594
	c0.388-6.375,0.7-10.217,0.7-19.125h4.747c0.079,7.125,0.311,18.938,13.073,18.938c8.326,0,12.139-4.967,12.139-11.531
	c0-5.719-2.336-8.812-11.672-13.594L150.746,285.475z"/>
<path fill="#FFFFFF" d="M235.82,295.689c-1.445,8.486-1.826,10.652-2.814,19.68c-5.775-0.361-12.242-0.264-19.693-0.264
	c-10.338,0-18.049-0.021-21.137,0.129l0.014-3.207c5.018,0.182,5.01,0,5.01-7.129v-43.871c0-6.317-1.369-7.492-6.387-7.131v-3.342
	c3.65,0.273,7.4,0.143,11.051,0.143c3.57,0,7.121,0.131,10.77-0.139v3.338c-5.02-0.27-6.994,0.09-6.92,7.131v42.607
	c0,6.678,0,7.039,7.301,6.951c14.977,0,17.029-3.611,19.006-14.896H235.82z"/>
</svg>
